# xmcd CD database file
#
# Track frame offsets:
#	150
#	20594
#	31878
#	53134
#	73883
#	86895
#	104981
#	120893
#	139159
#	158619
#	178346
#	196993
#
# Disc length: 2910 seconds
#
# Revision: 0
# Processed by: cddbd v1.4PL0 Copyright (c) Steve Scherf et al.
# Submitted via: CDex 1.40Beta8
#
DISCID=ab0b5c0c
DTITLE=Garth Brooks - Scarecrow
DYEAR=2001
DGENRE=Country
TTITLE0=Why Ain't I Running
TTITLE1=Beer Run
TTITLE2=Wrapped Up In You
TTITLE3=The Storm
TTITLE4=Thicker Than Blood
TTITLE5=Big Money
TTITLE6=Squeeze Me In
TTITLE7=Mr. Midnight
TTITLE8=Pushing Up Daisies
TTITLE9=Rodeo Or Mexico
TTITLE10=Don't Cross The River
TTITLE11=When You Come Back To Me Again
EXTD=YEAR: 2001 ID3G: 2
EXTT0=
EXTT1=
EXTT2=
EXTT3=
EXTT4=
EXTT5=
EXTT6=
EXTT7=
EXTT8=
EXTT9=
EXTT10=
EXTT11=
PLAYORDER=
